# xmcd
#
# Track frame offsets: 
#        182
#        16330
#        75967
#        100840
#        142492
#        156297
#        168915
#        177452
#        194570
#        237997
#
# Disc length: 3243 seconds
#
# Revision: 0
# Processed by: cddbd v1.5.2PL0 Copyright (c) Steve Scherf et al.
# Submitted via: ExactAudioCopy v0.99pb3
#
DISCID=820ca90a
DTITLE=Pigmeat Markham - Here Comes The Judge
DYEAR=1968
DGENRE=Blues
TTITLE0=Frisco Kate
TTITLE1=The Trail
TTITLE2=Batter Up
TTITLE3=Court Session
TTITLE4=If You Can't Be Good Be Careful
TTITLE5=Here Comes The Judge
TTITLE6=I Got The Number
TTITLE7=The News Reporter
TTITLE8=My Wife, I Ain't Seen Her
TTITLE9=Fast News
EXTD=
EXTT0=
EXTT1=
EXTT2=
EXTT3=
EXTT4=
EXTT5=
EXTT6=
EXTT7=
EXTT8=
EXTT9=
PLAYORDER=
